<?xml version="1.0" standalone="no"?>
<!DOCTYPE svg PUBLIC "-//W3C//DTD SVG 20010904//EN"
 "http://www.w3.org/TR/2001/REC-SVG-20010904/DTD/svg10.dtd">
<svg version="1.0" xmlns="http://www.w3.org/2000/svg"
 width="479.000000pt" height="482.000000pt" viewBox="0 0 479.000000 482.000000"
 preserveAspectRatio="xMidYMid meet">

<g transform="translate(0.000000,482.000000) scale(0.100000,-0.100000)"
fill="#000000" stroke="none">
<path d="M2295 4625 l-90 -175 68 -128 c61 -117 80 -173 60 -172 -5 1 -48 37
-98 80 -91 80 -125 96 -153 68 -29 -29 -12 -54 123 -171 l135 -118 0 -215 c0
-118 -3 -214 -7 -214 -3 0 -21 11 -40 26 l-33 25 0 169 0 170 -25 16 c-20 13
-31 15 -50 6 -29 -14 -40 -69 -32 -177 4 -59 2 -75 -9 -75 -19 0 -34 27 -94
165 l-51 121 -205 68 c-113 37 -207 66 -209 64 -6 -5 144 -341 158 -354 7 -7
71 -31 142 -54 129 -42 185 -67 185 -82 0 -4 -60 -8 -134 -8 -109 0 -138 -3
-150 -16 -20 -20 -20 -38 0 -58 13 -13 46 -16 207 -16 l192 0 78 -67 77 -67 0
-425 c0 -243 -4 -421 -9 -415 -24 26 -211 315 -211 326 0 7 21 78 45 158 25
80 45 153 45 162 0 20 -29 38 -59 38 -29 0 -45 -29 -77 -140 -16 -55 -32 -100
-36 -100 -17 0 -29 46 -44 176 l-16 139 -185 117 -184 117 6 -32 c3 -18 14
-106 25 -196 11 -91 23 -167 28 -170 5 -3 61 -39 125 -80 117 -74 156 -106
144 -117 -3 -3 -55 6 -115 20 -121 29 -152 32 -170 14 -18 -18 -15 -56 6 -66
9 -5 91 -26 182 -47 91 -21 170 -40 176 -44 16 -8 216 -312 211 -318 -3 -2
-191 89 -418 204 l-413 208 -27 90 -26 89 93 141 c52 77 94 148 94 157 0 23
-44 51 -68 44 -11 -4 -50 -52 -87 -108 -87 -130 -96 -121 -65 60 12 70 23 134
26 143 3 10 -48 72 -138 169 l-143 154 -22 -114 c-11 -63 -27 -152 -34 -197
l-12 -82 100 -108 c88 -95 129 -153 108 -153 -4 0 -55 25 -113 55 -112 59
-155 67 -176 33 -19 -31 5 -50 167 -133 86 -45 161 -85 166 -90 5 -6 12 -26
16 -46 l7 -36 -216 109 -215 108 -36 117 c-20 65 -41 134 -47 153 -21 68 -66
91 -102 51 -16 -18 -15 -25 17 -132 19 -63 33 -115 32 -117 -10 -11 -56 32
-141 133 -53 63 -101 115 -108 115 -6 0 -103 9 -216 20 -112 10 -206 17 -208
15 -4 -3 205 -261 247 -306 3 -4 79 -14 168 -22 90 -9 173 -22 185 -29 21 -11
11 -15 -104 -43 -142 -34 -168 -49 -150 -90 16 -34 31 -33 237 16 l173 40 211
-106 c116 -58 211 -110 211 -114 0 -5 -19 -12 -42 -18 -42 -9 -49 -6 -212 75
-179 89 -210 95 -222 47 -3 -13 -3 -29 1 -35 4 -6 59 -37 123 -69 108 -55 115
-60 89 -66 -17 -5 -96 2 -188 14 l-159 21 -175 -123 -175 -124 203 -27 c111
-15 211 -30 222 -32 14 -3 61 25 146 85 69 50 139 93 154 97 32 8 37 18 -47
-110 -34 -52 -58 -98 -56 -110 3 -23 46 -43 71 -33 9 3 60 71 112 150 l96 144
101 23 102 23 420 -211 421 -211 -220 0 -221 -1 -131 115 c-136 119 -164 133
-197 99 -9 -8 -16 -20 -16 -26 0 -12 48 -60 135 -136 l60 -52 -34 0 c-18 0
-96 25 -173 55 l-141 56 -198 -78 c-110 -42 -199 -80 -199 -83 0 -3 89 -41
199 -83 l198 -78 141 56 c77 30 155 55 173 55 l34 0 -60 -52 c-87 -76 -135
-124 -135 -136 0 -6 7 -18 16 -26 33 -34 61 -20 197 99 l132 115 220 -1 220 0
-421 -211 -420 -211 -102 23 -101 23 -96 144 c-52 79 -103 147 -112 150 -25
10 -68 -10 -71 -34 -2 -14 19 -55 56 -110 83 -125 80 -117 47 -109 -15 4 -85
47 -154 97 -85 60 -132 88 -146 85 -11 -2 -111 -17 -222 -32 l-203 -27 175
-124 175 -123 159 21 c92 12 171 19 188 14 26 -6 19 -11 -89 -66 -64 -32 -119
-63 -123 -69 -4 -6 -4 -22 -1 -35 12 -48 43 -42 222 47 163 81 170 84 212 75
23 -6 42 -13 42 -18 0 -4 -95 -55 -211 -114 l-210 -106 -179 42 c-187 43 -224
45 -235 8 -12 -36 19 -52 153 -84 115 -28 125 -32 104 -43 -12 -7 -95 -20
-185 -29 -89 -8 -165 -18 -168 -22 -42 -45 -251 -303 -247 -306 2 -2 96 5 208
15 113 11 210 20 216 20 7 0 55 52 108 115 85 101 131 144 141 133 1 -2 -13
-54 -32 -117 -32 -107 -33 -114 -17 -132 36 -40 81 -17 102 51 6 19 27 88 47
153 l36 118 211 105 c115 58 212 103 215 101 2 -3 0 -20 -4 -38 -8 -32 -20
-40 -173 -119 -90 -47 -169 -93 -174 -103 -16 -25 5 -51 43 -55 23 -2 59 11
136 52 57 31 107 56 110 56 21 0 -21 -59 -106 -152 -55 -58 -99 -114 -99 -125
0 -10 14 -99 32 -197 l32 -180 99 105 c54 57 118 127 142 154 l43 50 -25 139
c-35 199 -26 211 62 79 37 -57 76 -105 87 -109 24 -7 68 21 68 44 0 9 -42 80
-94 157 l-93 141 26 89 27 90 413 208 c227 115 415 206 418 204 3 -4 -180
-288 -203 -316 -2 -2 -84 -23 -182 -46 -98 -23 -184 -45 -190 -49 -16 -9 -15
-49 0 -64 18 -18 49 -15 170 14 60 14 112 23 115 20 12 -11 -27 -43 -144 -117
-64 -41 -120 -77 -125 -80 -5 -3 -17 -79 -28 -170 -11 -90 -22 -178 -25 -196
l-6 -32 184 117 185 117 16 139 c15 130 27 176 44 176 4 0 20 -45 36 -100 32
-111 48 -140 77 -140 29 0 59 18 59 36 0 9 -21 83 -46 166 -25 82 -44 156 -42
163 5 19 202 315 211 315 4 0 7 -188 7 -418 l0 -418 -77 -67 -78 -67 -192 0
c-161 0 -194 -3 -207 -16 -20 -20 -20 -38 0 -58 12 -13 41 -16 150 -16 74 0
134 -4 134 -8 0 -15 -56 -40 -185 -82 -71 -23 -135 -47 -142 -54 -14 -13 -164
-349 -158 -354 2 -2 96 27 209 64 l205 68 57 133 c32 74 63 138 70 144 28 23
35 -1 29 -94 -4 -56 -3 -102 3 -119 14 -34 46 -44 77 -24 25 16 25 17 25 186
l0 169 33 25 c19 15 37 26 40 26 4 0 7 -96 7 -214 l0 -215 -135 -117 c-135
-118 -153 -142 -123 -172 27 -27 60 -12 153 68 51 44 96 80 99 80 19 0 -2 -58
-61 -172 l-68 -128 90 -175 c50 -96 92 -175 95 -175 3 0 45 79 95 175 l90 175
-68 128 c-59 114 -80 172 -61 172 3 0 48 -36 99 -80 93 -80 126 -95 153 -68
29 29 12 54 -123 172 l-135 118 0 214 c0 118 3 214 7 214 3 0 21 -11 40 -26
l33 -25 0 -169 c0 -169 0 -170 25 -186 29 -19 63 -11 74 19 5 12 7 68 6 124
-3 83 0 103 11 103 19 0 34 -27 94 -165 l51 -121 205 -68 c113 -37 207 -66
209 -64 6 5 -144 341 -158 354 -7 7 -70 31 -142 54 -129 42 -185 67 -185 82 0
4 60 8 134 8 109 0 138 3 150 16 9 8 16 22 16 29 0 7 -7 21 -16 29 -13 13 -46
16 -207 16 l-192 0 -77 67 -78 67 0 418 c0 230 3 418 8 418 8 0 205 -296 210
-315 2 -7 -17 -81 -42 -163 -25 -83 -46 -157 -46 -166 0 -18 30 -36 59 -36 29
0 45 29 77 140 16 55 32 100 36 100 17 0 29 -46 44 -176 l16 -139 185 -117
184 -117 -6 32 c-3 18 -14 106 -25 196 -11 91 -23 167 -28 170 -5 3 -61 39
-125 80 -117 74 -156 106 -144 117 3 3 56 -6 117 -20 124 -29 151 -31 168 -14
18 18 15 56 -5 66 -10 5 -92 26 -183 47 -91 21 -170 40 -177 44 -15 8 -215
312 -210 318 3 2 191 -89 418 -204 l413 -208 27 -90 26 -89 -93 -141 c-52 -77
-94 -148 -94 -157 0 -23 44 -51 68 -44 11 4 50 52 87 109 88 132 97 120 62
-79 l-25 -139 43 -50 c24 -27 88 -97 142 -154 l99 -105 32 180 c18 98 32 187
32 197 0 11 -44 67 -99 125 -86 94 -127 152 -106 152 4 0 55 -25 113 -55 73
-39 116 -55 136 -53 36 4 55 31 40 56 -6 9 -84 55 -174 102 -152 79 -165 87
-173 119 -4 18 -6 35 -4 38 3 2 100 -43 215 -101 l211 -105 36 -118 c20 -65
41 -134 47 -153 21 -68 66 -91 102 -51 16 18 15 25 -17 132 -19 63 -33 115
-32 117 10 11 56 -32 141 -133 53 -63 101 -115 108 -115 6 0 103 -9 216 -20
112 -10 206 -17 208 -15 6 6 -249 310 -262 312 -6 2 -80 9 -164 18 -84 8 -162
20 -175 27 -20 11 -9 15 105 43 142 34 168 49 150 90 -16 34 -31 33 -238 -16
l-173 -40 -210 106 c-116 59 -211 111 -211 115 0 4 19 11 43 17 41 9 48 6 212
-75 142 -71 173 -83 195 -75 19 6 25 15 25 38 0 28 -7 34 -120 92 -111 57
-118 62 -92 68 17 5 98 -2 188 -14 l158 -21 173 121 c95 67 174 123 176 124 1
1 -89 14 -200 29 -112 15 -212 30 -223 32 -14 3 -61 -25 -146 -85 -69 -50
-139 -93 -154 -97 -32 -8 -37 -18 47 110 34 52 58 98 56 110 -3 23 -46 43 -71
33 -9 -3 -60 -71 -112 -150 l-96 -144 -101 -23 -102 -23 -420 211 -421 211
220 0 221 1 131 -115 c136 -119 164 -133 197 -99 9 8 16 20 16 26 0 12 -48 60
-135 136 l-60 52 34 0 c18 0 96 -25 173 -55 l141 -56 198 78 c110 42 199 80
199 83 0 4 -89 41 -199 84 l-198 76 -141 -55 c-77 -30 -155 -55 -173 -55 l-34
0 60 52 c87 76 135 124 135 136 0 6 -7 18 -16 26 -33 34 -61 20 -197 -99
l-132 -115 -220 1 -220 0 421 211 420 211 102 -23 101 -23 96 -144 c52 -79
103 -147 112 -150 25 -10 68 10 71 33 2 12 -22 58 -56 110 -84 128 -79 118
-47 110 15 -4 85 -47 154 -97 85 -60 132 -88 146 -85 11 2 111 17 222 32 l203
27 -175 124 -175 123 -159 -21 c-92 -12 -171 -19 -188 -14 -26 6 -19 11 89 66
64 32 119 63 123 69 4 6 4 22 1 35 -12 48 -43 42 -222 -47 -163 -81 -170 -84
-211 -75 -24 6 -43 13 -43 18 0 4 95 55 211 114 l210 106 173 -40 c207 -49
222 -50 238 -16 18 41 -8 56 -150 90 -114 28 -125 32 -105 43 13 7 91 19 175
27 84 9 158 16 164 18 13 2 268 306 263 312 -3 2 -94 -5 -204 -15 -110 -11
-207 -19 -216 -20 -10 0 -60 -52 -113 -115 -85 -101 -131 -144 -141 -133 -1 2
13 54 32 117 32 107 33 114 17 132 -36 40 -81 17 -102 -51 -6 -19 -27 -88 -47
-153 l-36 -118 -211 -105 c-115 -58 -212 -103 -215 -101 -2 3 0 20 4 38 8 32
20 40 173 119 90 47 169 93 174 103 16 25 -4 51 -42 55 -21 2 -60 -13 -135
-52 -57 -31 -107 -56 -111 -56 -22 0 18 57 105 152 55 58 99 114 99 125 0 10
-14 99 -32 197 l-32 180 -89 -95 c-49 -52 -113 -121 -142 -154 l-53 -60 25
-139 c35 -199 26 -211 -62 -79 -37 57 -76 105 -87 109 -24 7 -68 -21 -68 -44
0 -9 42 -80 94 -157 l93 -141 -27 -89 -26 -90 -413 -208 c-227 -115 -415 -206
-418 -204 -5 6 195 310 211 318 6 4 85 23 176 44 91 21 173 42 183 47 20 10
23 48 5 66 -18 18 -49 15 -170 -14 -60 -14 -112 -23 -115 -20 -12 11 27 43
144 117 64 41 120 77 125 80 5 3 17 79 28 170 11 90 22 178 25 196 6 32 6 32
-178 -85 l-184 -117 -17 -139 c-15 -130 -27 -176 -44 -176 -4 0 -20 45 -36
100 -32 111 -48 140 -77 140 -29 0 -59 -18 -59 -36 0 -9 21 -83 46 -166 25
-82 44 -156 42 -163 -5 -19 -202 -315 -210 -315 -5 0 -8 188 -8 418 l0 418 78
67 77 67 192 0 c161 0 194 3 207 16 9 8 16 22 16 29 0 7 -7 21 -16 29 -12 13
-41 16 -150 16 -74 0 -134 4 -134 8 0 15 56 40 185 82 72 23 135 47 142 54 14
13 164 349 158 354 -2 2 -96 -27 -209 -64 l-205 -68 -51 -121 c-60 -138 -75
-165 -94 -165 -10 0 -13 21 -12 93 2 124 -2 146 -30 159 -18 8 -29 7 -49 -6
l-25 -16 0 -170 0 -169 -33 -25 c-19 -15 -37 -26 -40 -26 -4 0 -7 97 -7 214
l0 215 135 117 c136 117 153 142 123 172 -27 27 -60 12 -153 -68 -51 -44 -96
-80 -99 -80 -19 0 2 58 61 171 l68 128 -90 175 c-50 97 -92 176 -95 176 -3 0
-45 -79 -95 -175z"/>
</g>
</svg>
